<?xml version="1.0" encoding="iso-8859-1"?>
<!-- Generator: Adobe Illustrator 19.0.0, SVG Export Plug-In . SVG Version: 6.00 Build 0)  -->
<svg version="1.1" id="Layer_1" xmlns="http://www.w3.org/2000/svg" xmlns:xlink="http://www.w3.org/1999/xlink" x="0px" y="0px"
	 viewBox="0 0 512 512" style="enable-background:new 0 0 512 512;" xml:space="preserve">
<g>
	<g>
		<g>
			<path d="M330.78,402.534c-31.492,8.1-64.316,10.838-96.736,8.535c-1.373-0.099-2.731,0.147-3.977,0.709L84.336,477.532
				c-3.137,1.416-5.64,0.007-6.569-0.665c-0.929-0.671-3.053-2.604-2.693-6.028l11.503-109.323c0.29-2.766-0.832-5.493-2.989-7.253
				C44.081,322.032,16.493,274.8,16.493,222.896c0-65.233,42.577-120.312,97.099-152.113c3.935-2.296,5.264-7.345,2.969-11.279
				c-2.296-3.933-7.346-5.262-11.279-2.968C95.949,61.98,87.026,67.957,78.76,74.302c-24.215,18.59-43.355,40.469-56.886,65.028
				C7.358,165.668,0,193.784,0,222.896c0,29.112,7.358,57.227,21.871,83.565c11.776,21.373,27.857,40.77,47.841,57.714
				L58.671,469.114c-0.875,8.323,2.651,16.218,9.434,21.12c3.909,2.825,8.684,4.297,13.472,4.325
				c3.266,0.019,6.538-0.636,9.543-1.992l143.844-64.903c33.479,2.167,67.42-0.792,99.925-9.155
				c4.41-1.135,7.066-5.631,5.932-10.041C339.685,404.055,335.185,401.396,330.78,402.534z"/>
			<path d="M255.998,17.441c-41.429,0-82.506,8.028-118.793,23.215c-4.201,1.758-6.182,6.59-4.422,10.791
				c1.757,4.201,6.592,6.182,10.79,4.424c34.288-14.351,73.165-21.936,112.427-21.936c105.483,0,234.952,66.296,239.39,185.103
				c2.075,55.536-29.15,106.326-72.192,139.368c-17.188,13.192-36.667,24.227-57.899,32.796c-4.222,1.705-6.264,6.51-4.56,10.734
				c1.297,3.213,4.386,5.162,7.651,5.162c1.027,0,2.073-0.192,3.084-0.601c22.616-9.127,43.396-20.906,61.768-35.008
				C479.494,335.981,512,282.312,512,222.896C511.999,91.137,372.781,17.441,255.998,17.441z"/>
			<path d="M60.475,222.897c0.001,97.165,112.967,144.978,195.524,144.978c53.284,0,103.152-15.753,140.416-44.358
				c35.537-27.279,55.108-63.014,55.108-100.621c0-37.608-19.571-73.342-55.108-100.622
				c-37.264-28.604-87.131-44.357-140.416-44.357C173.71,77.917,60.474,125.72,60.475,222.897z M255.999,94.41
				c72.901,0,179.032,40.871,179.032,128.486c-0.001,87.676-105.838,128.486-179.031,128.486
				c-72.89,0-179.032-40.88-179.032-128.486C76.969,135.21,182.819,94.41,255.999,94.41z"/>
		</g>
	</g>
</g>
<g>
</g>
<g>
</g>
<g>
</g>
<g>
</g>
<g>
</g>
<g>
</g>
<g>
</g>
<g>
</g>
<g>
</g>
<g>
</g>
<g>
</g>
<g>
</g>
<g>
</g>
<g>
</g>
<g>
</g>
</svg>
