<?xml version="1.0" encoding="UTF-8" standalone="no"?>
<!-- Generator: Adobe Illustrator 19.0.0, SVG Export Plug-In . SVG Version: 6.00 Build 0)  -->

<svg
   xmlns:dc="http://purl.org/dc/elements/1.1/"
   xmlns:cc="http://creativecommons.org/ns#"
   xmlns:rdf="http://www.w3.org/1999/02/22-rdf-syntax-ns#"
   xmlns:svg="http://www.w3.org/2000/svg"
   xmlns="http://www.w3.org/2000/svg"
   xmlns:sodipodi="http://sodipodi.sourceforge.net/DTD/sodipodi-0.dtd"
   xmlns:inkscape="http://www.inkscape.org/namespaces/inkscape"
   version="1.1"
   id="Layer_1"
   x="0px"
   y="0px"
   viewBox="0 0 512.002 512.002"
   style="enable-background:new 0 0 512.002 512.002;"
   xml:space="preserve"
   sodipodi:docname="filled-heart.svg"
   inkscape:version="0.92.1 r15371"><metadata
     id="metadata3826"><rdf:RDF><cc:Work
         rdf:about=""><dc:format>image/svg+xml</dc:format><dc:type
           rdf:resource="http://purl.org/dc/dcmitype/StillImage" /><dc:title></dc:title></cc:Work></rdf:RDF></metadata><defs
     id="defs3824" /><sodipodi:namedview
     pagecolor="#ffffff"
     bordercolor="#666666"
     borderopacity="1"
     objecttolerance="10"
     gridtolerance="10"
     guidetolerance="10"
     inkscape:pageopacity="0"
     inkscape:pageshadow="2"
     inkscape:window-width="1920"
     inkscape:window-height="1016"
     id="namedview3822"
     showgrid="false"
     inkscape:zoom="1.6074156"
     inkscape:cx="256.00101"
     inkscape:cy="256.00101"
     inkscape:window-x="0"
     inkscape:window-y="27"
     inkscape:window-maximized="1"
     inkscape:current-layer="Layer_1" /><path
     style="fill:#000000;stroke:#000000;stroke-width:1px;stroke-linecap:butt;stroke-linejoin:miter;stroke-opacity:1"
     d="M 256.31207,148.68588 200.94368,61.58955 162.37245,43.548166 105.13772,42.303933 36.082766,88.340566 8.7096333,154.90705 l 6.8432837,74.654 47.902983,100.16078 92.07327,84.60787 99.53866,60.34531 133.75508,-82.1194 69.67707,-77.76458 L 505.78085,204.05427 490.22793,104.5156 468.78788,68.864996 C 455.98123,55.592171 447.14315,48.846412 430.81579,42.459462 L 363.31613,35.46065 304.83717,67.1886 Z"
     id="path3832"
     inkscape:connector-curvature="0"
     sodipodi:nodetypes="ccccccccccccccccccc" /><g
     id="g3777"><g
       id="g3775"><path
         d="M466.766,66.221c-3.201-3.061-8.276-2.947-11.335,0.254c-3.059,3.2-2.945,8.274,0.255,11.335    c25.599,24.471,40.28,59.812,40.28,96.958c0,93.944-65.692,168.107-120.801,213.78c-52.475,43.49-105.643,70.187-119.168,76.659    c-13.494-6.451-66.425-33.013-118.879-76.423C81.88,343.069,16.033,268.831,16.033,174.768    c0-63.313,44.98-128.802,120.251-128.802c60.457,0,98.122,56.752,112.008,105.351c0.972,3.401,4.171,5.814,7.708,5.814    c3.538,0,6.736-2.412,7.708-5.814c13.885-48.599,51.552-105.351,112.008-105.351c16.985,0,33.134,3.413,47.995,10.147    c4.032,1.825,8.783,0.04,10.61-3.994c1.827-4.032,0.039-8.783-3.995-10.611c-16.955-7.681-35.329-11.575-54.611-11.575    c-30.144,0-58.347,12.27-81.56,35.483c-15.779,15.78-28.751,35.924-38.156,59.083c-9.404-23.159-22.377-43.304-38.156-59.083    c-23.213-23.213-51.417-35.483-81.56-35.483c-38.402,0-73.559,15.821-98.996,44.546C13.591,101.241,0,137.795,0,174.768    c0,44.448,13.452,88.322,39.983,130.405c21.022,33.345,50.264,65.631,86.915,95.963c62.12,51.41,123.252,79.084,125.824,80.237    c2.068,0.928,4.489,0.928,6.559,0c2.572-1.152,63.704-28.828,125.824-80.237c36.65-30.332,65.893-62.618,86.915-95.963    c26.531-42.083,39.983-85.957,39.983-130.405C512,133.266,495.512,93.702,466.766,66.221z"
         id="path3773" /></g></g><g
     id="g3783"
     style="fill:#ffffff"><g
       id="g3781"
       style="fill:#ffffff"><path
         d="M443.129,90.945c-3.201-3.058-8.275-2.945-11.335,0.255c-3.059,3.2-2.945,8.275,0.255,11.336    c18.883,18.049,29.712,44.377,29.712,72.233c0,35.886-11.529,71.817-34.267,106.795c-2.195,3.377-1.486,8.007,1.63,10.563    c3.647,2.991,9.244,2.128,11.812-1.824c24.457-37.624,36.858-76.494,36.858-115.535    C477.795,142.557,465.16,112.005,443.129,90.945z"
         id="path3779"
         style="fill:#ffffff" /></g></g><g
     id="g3789"><g
       id="g3787"><path
         d="M420.528,305.365c-3.435-2.792-8.485-2.27-11.277,1.167c-11.213,13.803-24.313,27.558-38.935,40.887    c-2.97,2.707-3.459,7.356-1.102,10.616c2.765,3.824,8.411,4.417,11.902,1.233c15.211-13.866,28.863-28.207,40.579-42.626    C424.488,313.206,423.965,308.158,420.528,305.365z"
         id="path3785"
         style="fill:#ffffff" /></g></g><g
     id="g3791" /><g
     id="g3793" /><g
     id="g3795" /><g
     id="g3797" /><g
     id="g3799" /><g
     id="g3801" /><g
     id="g3803" /><g
     id="g3805" /><g
     id="g3807" /><g
     id="g3809" /><g
     id="g3811" /><g
     id="g3813" /><g
     id="g3815" /><g
     id="g3817" /><g
     id="g3819" /></svg>