<?xml version="1.0" encoding="UTF-8" standalone="no"?>
<svg version="1.1" id="Capa_1" xmlns="http://www.w3.org/2000/svg" xmlns:xlink="http://www.w3.org/1999/xlink" x="0px" y="0px"
    viewBox="0 0 294.997 294.997" style="enable-background:new 0 0 294.997 294.997;" xml:space="preserve">
<g id="g4505">
    <path
       id="path4607"
       d="M 286.36,98.016 C 273.137,60.925 246.262,31.203 210.685,14.325 175.109,-2.554 135.088,-4.567 97.997,8.656 60.906,21.879 31.183,48.754 14.305,84.331 -2.572,119.908 -4.585,159.928 8.637,197.02 c 1.113,3.122 4.547,4.748 7.667,3.637 3.122,-1.113 4.75,-4.545 3.637,-7.667 C 7.794,158.918 9.643,122.155 25.147,89.474 40.651,56.793 67.954,32.105 102.026,19.959 136.098,7.813 172.862,9.663 205.542,25.166 c 32.682,15.504 57.369,42.807 69.516,76.879 12.146,34.072 10.297,70.835 -5.207,103.516 -15.504,32.681 -42.807,57.369 -76.879,69.515 -38.189,13.613 -80.082,9.493 -114.935,-11.304 -2.848,-1.699 -6.529,-0.768 -8.227,2.078 -1.698,2.846 -0.768,6.529 2.078,8.227 23.207,13.848 49.276,20.903 75.541,20.902 16.674,0 33.43,-2.845 49.572,-8.599 37.092,-13.223 66.813,-40.098 83.691,-75.675 16.878,-35.578 18.891,-75.598 5.668,-112.689 z" /><path
       id="path4609"
       d="m 147.49913,81.51687 c -3.313,0 -6,2.687 -6,6 v 149.43 c 0,3.314 2.687,6 6,6 3.313,0 6,-2.686 6,-6 v -149.43 c 0,-3.313 -2.687,-6 -6,-6 z" />
    <path
       id="path4611"
       d="m 210.25613,129.32987 c 2.343,2.344 6.142,2.344 8.485,0 1.171,-1.171 1.757,-2.707 1.757,-4.242 0,-1.535 -0.586,-3.071 -1.757,-4.242 l -67,-67 c -2.343,-2.344 -6.142,-2.344 -8.485,0 l -67,67 c -2.343,2.342 -2.343,6.143 0,8.484 2.343,2.344 6.142,2.344 8.485,0 l 62.757,-62.757 z" />
</g>
</svg>